<svg width="100%" viewBox="0 0 840 980" xmlns="http://www.w3.org/2000/svg">
<defs>
  <marker id="arrow" viewBox="0 0 10 10" refX="8" refY="5" markerWidth="6" markerHeight="6" orient="auto-start-reverse">
    <path d="M2 1L8 5L2 9" fill="none" stroke="context-stroke" stroke-width="1.5" stroke-linecap="round" stroke-linejoin="round"/>
  </marker>
  <style>
    text { font-family: system-ui, -apple-system, sans-serif; }
    .th { font-size: 14px; font-weight: 500; fill: #2C2C2A; }
    .ts { font-size: 12px; font-weight: 400; fill: #5F5E5A; }
    .arr { stroke: #5F5E5A; stroke-width: 1.5; }
    .leader { stroke: #B4B2A9; stroke-width: 0.5; stroke-dasharray: 3 2; }

    .c-teal rect { fill: #E1F5EE; stroke: #0F6E56; }
    .c-teal .th { fill: #085041; }
    .c-teal .ts { fill: #0F6E56; }

    .c-purple rect { fill: #EEEDFE; stroke: #534AB7; }
    .c-purple .th { fill: #3C3489; }
    .c-purple .ts { fill: #534AB7; }

    .c-coral rect { fill: #FAECE7; stroke: #993C1D; }
    .c-coral .th { fill: #712B13; }
    .c-coral .ts { fill: #993C1D; }

    .c-gray rect { fill: #F1EFE8; stroke: #5F5E5A; }
    .c-gray .th { fill: #444441; }
    .c-gray .ts { fill: #5F5E5A; }

    .c-amber rect { fill: #FAEEDA; stroke: #854F0B; }
    .c-amber .th { fill: #633806; }
    .c-amber .ts { fill: #854F0B; }

    .c-blue rect { fill: #E6F1FB; stroke: #185FA5; }
    .c-blue .th { fill: #0C447C; }
    .c-blue .ts { fill: #185FA5; }
  </style>
</defs>

<!-- ===== SHELLS ===== -->
<text class="ts" x="40" y="20" opacity="0.4">Shells (loaded at startup)</text>

<!-- Voice shell -->
<rect x="30" y="30" width="420" height="168" rx="14" fill="none" stroke="#B4B2A9" stroke-width="0.5" stroke-dasharray="6 3" opacity="0.5"/>
<text class="th" x="50" y="54">Voice shell</text>
<text class="ts" x="145" y="54" opacity="0.45">composable pipeline of standalone packages</text>

<g class="c-teal">
  <rect x="50" y="68" width="76" height="32" rx="6" stroke-width="0.5"/>
  <text class="ts" x="88" y="84" text-anchor="middle" dominant-baseline="central">Audio</text>
</g>
<line x1="126" y1="84" x2="134" y2="84" class="arr" marker-end="url(#arrow)"/>
<g class="c-teal">
  <rect x="136" y="68" width="76" height="32" rx="6" stroke-width="0.5"/>
  <text class="ts" x="174" y="84" text-anchor="middle" dominant-baseline="central">Detector</text>
</g>
<line x1="212" y1="84" x2="220" y2="84" class="arr" marker-end="url(#arrow)"/>
<g class="c-teal">
  <rect x="222" y="68" width="86" height="32" rx="6" stroke-width="0.5"/>
  <text class="ts" x="265" y="84" text-anchor="middle" dominant-baseline="central">Transcriber</text>
</g>
<line x1="308" y1="84" x2="316" y2="84" class="arr" marker-end="url(#arrow)"/>
<g class="c-purple">
  <rect x="318" y="68" width="76" height="32" rx="6" stroke-width="0.5"/>
  <text class="ts" x="356" y="84" text-anchor="middle" dominant-baseline="central">Sanitizer</text>
</g>

<path d="M356 100 L356 116 L304 116" fill="none" class="arr" marker-end="url(#arrow)"/>
<g class="c-purple">
  <rect x="222" y="108" width="82" height="32" rx="6" stroke-width="0.5"/>
  <text class="ts" x="263" y="124" text-anchor="middle" dominant-baseline="central">Buffer</text>
</g>
<line x1="222" y1="124" x2="194" y2="124" class="arr" marker-end="url(#arrow)"/>
<g class="c-coral">
  <rect x="80" y="108" width="114" height="32" rx="6" stroke-width="0.5"/>
  <text class="ts" x="137" y="124" text-anchor="middle" dominant-baseline="central">Gatekeeper</text>
</g>

<line x1="137" y1="140" x2="137" y2="160" stroke="#B4B2A9" stroke-width="0.5" stroke-dasharray="3 2"/>
<text class="ts" x="50" y="170" opacity="0.4">uses shared LLM access</text>

<!-- CLI shell -->
<rect x="470" y="30" width="180" height="76" rx="14" fill="none" stroke="#B4B2A9" stroke-width="0.5" stroke-dasharray="6 3" opacity="0.5"/>
<text class="th" x="490" y="54">CLI shell</text>
<g class="c-gray">
  <rect x="486" y="66" width="148" height="30" rx="6" stroke-width="0.5"/>
  <text class="ts" x="560" y="81" text-anchor="middle" dominant-baseline="central">stdin readline</text>
</g>

<!-- Future shell -->
<rect x="470" y="120" width="180" height="46" rx="14" fill="none" stroke="#B4B2A9" stroke-width="0.5" stroke-dasharray="6 3" opacity="0.2"/>
<text class="ts" x="560" y="148" text-anchor="middle" opacity="0.3">future shells</text>
<line x1="560" y1="166" x2="560" y2="248" stroke="#B4B2A9" stroke-width="0.5" stroke-dasharray="4 2" opacity="0.2"/>

<!-- submit(text) arrows -->
<line x1="180" y1="198" x2="180" y2="248" stroke="#B4B2A9" stroke-width="0.5" stroke-dasharray="4 2"/>
<line x1="560" y1="96" x2="560" y2="248" stroke="#B4B2A9" stroke-width="0.5" stroke-dasharray="4 2"/>
<text class="ts" x="168" y="224" opacity="0.5">submit(text)</text>
<text class="ts" x="510" y="224" opacity="0.5">submit(text)</text>

<!-- ===== KERNEL ===== -->
<rect x="30" y="250" width="620" height="240" rx="16" fill="none" stroke="#5F5E5A" stroke-width="1" opacity="0.5"/>
<text class="th" x="50" y="276">Kernel</text>
<text class="ts" x="104" y="276" opacity="0.45">thin orchestration layer</text>

<g class="c-gray">
  <rect x="50" y="290" width="180" height="40" rx="8" stroke-width="0.5"/>
  <text class="th" x="140" y="310" text-anchor="middle" dominant-baseline="central">Kernel API</text>
</g>
<line x1="140" y1="330" x2="140" y2="344" class="arr" marker-end="url(#arrow)"/>

<g class="c-coral">
  <rect x="50" y="346" width="180" height="50" rx="8" stroke-width="0.5"/>
  <text class="th" x="140" y="364" text-anchor="middle" dominant-baseline="central">Agent</text>
  <text class="ts" x="140" y="382" text-anchor="middle" dominant-baseline="central">agentic loop</text>
</g>

<g class="c-teal">
  <rect x="260" y="290" width="170" height="50" rx="8" stroke-width="0.5"/>
  <text class="th" x="345" y="308" text-anchor="middle" dominant-baseline="central">Tool registry</text>
  <text class="ts" x="345" y="326" text-anchor="middle" dominant-baseline="central">schema + dispatch</text>
</g>
<line x1="230" y1="370" x2="258" y2="340" class="arr" marker-end="url(#arrow)"/>

<g class="c-amber">
  <rect x="260" y="356" width="170" height="50" rx="8" stroke-width="0.5"/>
  <text class="th" x="345" y="374" text-anchor="middle" dominant-baseline="central">Config tool</text>
  <text class="ts" x="345" y="392" text-anchor="middle" dominant-baseline="central">apply + local store</text>
</g>

<g class="c-purple">
  <rect x="460" y="290" width="170" height="50" rx="8" stroke-width="0.5"/>
  <text class="th" x="545" y="308" text-anchor="middle" dominant-baseline="central">Conversation</text>
  <text class="ts" x="545" y="326" text-anchor="middle" dominant-baseline="central">history + summarizer</text>
</g>

<line x1="652" y1="370" x2="666" y2="370" stroke="#B4B2A9" stroke-width="0.5" stroke-dasharray="3 2" marker-end="url(#arrow)"/>
<text class="ts" x="460" y="370" opacity="0.4">uses shared layer →</text>

<!-- ===== SHARED (vertical panel, right side) ===== -->
<rect x="668" y="250" width="152" height="520" rx="16" fill="none" stroke="#5F5E5A" stroke-width="1" stroke-dasharray="8 4" opacity="0.6"/>
<text class="th" x="744" y="274" text-anchor="middle">Shared</text>
<text class="ts" x="744" y="291" text-anchor="middle" opacity="0.45">used by all layers</text>

<g class="c-blue">
  <rect x="678" y="302" width="132" height="44" rx="8" stroke-width="0.5"/>
  <text class="th" x="744" y="318" text-anchor="middle" dominant-baseline="central">LLM access</text>
  <text class="ts" x="744" y="336" text-anchor="middle" dominant-baseline="central">registry + ABCs</text>
</g>

<g class="c-blue">
  <rect x="678" y="356" width="132" height="44" rx="8" stroke-width="0.5"/>
  <text class="th" x="744" y="372" text-anchor="middle" dominant-baseline="central">Logging</text>
  <text class="ts" x="744" y="390" text-anchor="middle" dominant-baseline="central">shared output</text>
</g>

<g class="c-blue">
  <rect x="678" y="410" width="132" height="44" rx="8" stroke-width="0.5"/>
  <text class="th" x="744" y="426" text-anchor="middle" dominant-baseline="central">Schemas</text>
  <text class="ts" x="744" y="444" text-anchor="middle" dominant-baseline="central">typed data</text>
</g>

<g class="c-blue">
  <rect x="678" y="464" width="132" height="44" rx="8" stroke-width="0.5"/>
  <text class="th" x="744" y="480" text-anchor="middle" dominant-baseline="central">Config</text>
  <text class="ts" x="744" y="498" text-anchor="middle" dominant-baseline="central">read-only</text>
</g>

<g class="c-blue">
  <rect x="678" y="518" width="132" height="44" rx="8" stroke-width="0.5"/>
  <text class="th" x="744" y="534" text-anchor="middle" dominant-baseline="central">Event bus</text>
  <text class="ts" x="744" y="552" text-anchor="middle" dominant-baseline="central">future</text>
</g>

<!-- ===== ADAPTERS ===== -->
<text class="ts" x="40" y="664" opacity="0.4">Adapters (MCP servers, hot-pluggable)</text>

<rect x="30" y="674" width="620" height="90" rx="14" fill="none" stroke="#B4B2A9" stroke-width="0.5" stroke-dasharray="6 3" opacity="0.5"/>

<g class="c-teal">
  <rect x="50" y="692" width="120" height="42" rx="8" stroke-width="0.5"/>
  <text class="th" x="110" y="706" text-anchor="middle" dominant-baseline="central">GNOME</text>
  <text class="ts" x="110" y="724" text-anchor="middle" dominant-baseline="central">desktop control</text>
</g>

<g class="c-amber">
  <rect x="190" y="692" width="120" height="42" rx="8" stroke-width="0.5"/>
  <text class="th" x="250" y="706" text-anchor="middle" dominant-baseline="central">Config store</text>
  <text class="ts" x="250" y="724" text-anchor="middle" dominant-baseline="central">persistence</text>
</g>

<rect x="330" y="692" width="120" height="42" rx="8" fill="none" stroke="#B4B2A9" stroke-width="0.5" stroke-dasharray="4 2" opacity="0.2"/>
<text class="ts" x="390" y="716" text-anchor="middle" opacity="0.25">future adapter</text>

<rect x="470" y="692" width="120" height="42" rx="8" fill="none" stroke="#B4B2A9" stroke-width="0.5" stroke-dasharray="4 2" opacity="0.2"/>
<text class="ts" x="530" y="716" text-anchor="middle" opacity="0.25">future adapter</text>

<!-- Kernel to Adapters -->
<line x1="345" y1="490" x2="345" y2="672" class="arr" marker-end="url(#arrow)"/>
<text class="ts" x="355" y="498" opacity="0.45">MCP protocol</text>

<!-- Config tool to Config store -->
<path d="M345 406 L345 430 L250 430 L250 690" fill="none" class="arr" marker-end="url(#arrow)"/>
<text class="ts" x="210" y="450" opacity="0.4">persist</text>

<!-- ===== PROVIDERS ===== -->
<text class="ts" x="40" y="790" opacity="0.4">Providers (swappable implementations behind shared ABCs)</text>

<rect x="30" y="800" width="620" height="100" rx="14" fill="none" stroke="#B4B2A9" stroke-width="0.5" stroke-dasharray="6 3" opacity="0.5"/>

<text class="ts" x="50" y="822" opacity="0.45">LLM providers</text>
<g class="c-gray">
  <rect x="50" y="832" width="80" height="30" rx="6" stroke-width="0.5"/>
  <text class="ts" x="90" y="847" text-anchor="middle" dominant-baseline="central">Groq</text>
</g>
<g class="c-gray">
  <rect x="140" y="832" width="100" height="30" rx="6" stroke-width="0.5"/>
  <text class="ts" x="190" y="847" text-anchor="middle" dominant-baseline="central">OpenRouter</text>
</g>
<rect x="250" y="832" width="80" height="30" rx="6" fill="none" stroke="#B4B2A9" stroke-width="0.5" stroke-dasharray="4 2" opacity="0.2"/>
<text class="ts" x="290" y="847" text-anchor="middle" opacity="0.25">Ollama</text>

<text class="ts" x="380" y="822" opacity="0.45">STT providers</text>
<g class="c-gray">
  <rect x="380" y="832" width="110" height="30" rx="6" stroke-width="0.5"/>
  <text class="ts" x="435" y="847" text-anchor="middle" dominant-baseline="central">Groq Whisper</text>
</g>
<g class="c-gray">
  <rect x="500" y="832" width="110" height="30" rx="6" stroke-width="0.5"/>
  <text class="ts" x="555" y="847" text-anchor="middle" dominant-baseline="central">Local Whisper</text>
</g>

<!-- Shared to Providers -->
<path d="M744 770 L744 780 L435 780 L435 798" fill="none" class="arr" marker-end="url(#arrow)"/>
<text class="ts" x="570" y="776" opacity="0.4">shared ABCs</text>

</svg>
